<?xml version="1.0" standalone="no"?>
<!DOCTYPE svg PUBLIC "-//W3C//DTD SVG 20010904//EN"
 "http://www.w3.org/TR/2001/REC-SVG-20010904/DTD/svg10.dtd">
<svg version="1.0" xmlns="http://www.w3.org/2000/svg"
 width="16.000000pt" height="16.000000pt" viewBox="0 0 16.000000 16.000000"
 preserveAspectRatio="xMidYMid meet">
<metadata>
Created by potrace 1.11, written by Peter Selinger 2001-2013
</metadata>
<g transform="translate(0.000000,16.000000) scale(0.002286,-0.002286)"
fill="#000000" stroke="none">
<path d="M3325 6844 c-342 -26 -579 -70 -856 -160 -503 -162 -955 -439 -1334
-819 -550 -550 -879 -1239 -967 -2030 -15 -142 -15 -528 0 -670 88 -791 417
-1480 967 -2030 550 -550 1239 -879 2030 -967 142 -15 528 -15 670 0 791 88
1480 417 2030 967 550 550 879 1239 967 2030 6 61 12 211 12 335 0 124 -6 275
-12 335 -88 791 -417 1480 -967 2030 -538 539 -1224 871 -1980 960 -129 15
-464 26 -560 19z"/>
</g>
</svg>
